<svg xmlns="http://www.w3.org/2000/svg" viewBox="0 0 177.69 39.19"><defs><style>.cls-1{fill:#3e454b;}.cls-2{fill:#0066f6;}</style></defs><title>Asset 10</title><g id="Layer_2" data-name="Layer 2"><g id="Layer_1-2" data-name="Layer 1"><path class="cls-1" d="M63.78,19.2c0-3.78-2.08-5.81-5.22-5.81s-5.3,2-5.3,5.81v13H47.33V8.69h5.93v2.92a8.78,8.78,0,0,1,7.08-3.26c5.47,0,9.37,3.56,9.37,10V32.17H63.78Z"/><path class="cls-1" d="M82.84,32.55c-6.82,0-11.78-4.75-11.78-12.12S75.89,8.3,82.84,8.3c6.79,0,11.58,4.62,11.58,11.62a14.8,14.8,0,0,1-.17,2.29H77.08a5.5,5.5,0,0,0,5.64,5.42,4.83,4.83,0,0,0,4.7-2.84h6.4C92.55,29.11,88.65,32.55,82.84,32.55ZM77.12,18.22H88.27c-.09-3.09-2.54-5-5.59-5A5.46,5.46,0,0,0,77.12,18.22Z"/><path class="cls-1" d="M109.67,8.3c6,0,10.72,4.71,10.72,12s-4.7,12.21-10.72,12.21a9.24,9.24,0,0,1-7.75-3.73v3.35H96V.8h5.94V12.12A9.14,9.14,0,0,1,109.67,8.3Zm-1.57,5.22c-3.18,0-6.18,2.45-6.18,6.91s3,6.9,6.18,6.9,6.23-2.54,6.23-7S111.32,13.52,108.1,13.52Z"/><path class="cls-1" d="M135.65,8.3c6,0,10.72,4.71,10.72,12s-4.7,12.21-10.72,12.21a9.24,9.24,0,0,1-7.75-3.73v3.35H122V.8h5.94V12.12A9.14,9.14,0,0,1,135.65,8.3Zm-1.57,5.22c-3.18,0-6.18,2.45-6.18,6.91s3,6.9,6.18,6.9,6.23-2.54,6.23-7S137.3,13.52,134.08,13.52Z"/><rect class="cls-1" x="147.94" y="8.69" width="5.93" height="23.48"/><path class="cls-1" d="M166.16,24.88l-4.28,7.29h-6.36l7.68-11.79L155.44,8.69h6.7l4.79,7.24,4.32-7.24h6.36l-7.72,11.69,7.8,11.79H171Z"/><path class="cls-2" d="M19.59,0a19.6,19.6,0,1,0,19.6,19.59A19.59,19.59,0,0,0,19.59,0ZM4.93,26.08l7-10.38A5.83,5.83,0,0,1,20,14.09l4.58,3-1,1.54a1.7,1.7,0,0,1-2.36.47L18,17a2.28,2.28,0,0,0-3.17.63L9.19,26.08Zm22.42-2.6a5.82,5.82,0,0,1-8.08,1.62l-4.58-3.05,1-1.54A1.7,1.7,0,0,1,18.07,20l3.17,2.11a2.29,2.29,0,0,0,3.16-.64l5.6-8.4h4.25Z"/></g></g></svg>