<svg xmlns="http://www.w3.org/2000/svg" viewBox="0 0 178.22 29.41"><defs><style>.cls-1{fill:#fff;}.cls-2{fill:#0066f6;}</style></defs><title>Asset 14</title><g id="Layer_2" data-name="Layer 2"><g id="Layer_1-2" data-name="Layer 1"><path class="cls-1" d="M72.68,17c0-3.49-1.92-5.38-4.83-5.38S62.94,13.55,62.94,17v12H57.45V7.3h5.49V10A8.15,8.15,0,0,1,69.5,7c5.07,0,8.68,3.3,8.68,9.31V29.06h-5.5Z"/><path class="cls-1" d="M90.35,29.41C84,29.41,79.43,25,79.43,18.18S83.91,7,90.35,7c6.28,0,10.72,4.28,10.72,10.76a12.61,12.61,0,0,1-.16,2.12H85a5.09,5.09,0,0,0,5.22,5,4.48,4.48,0,0,0,4.36-2.64h5.93C99.34,26.23,95.73,29.41,90.35,29.41Zm-5.3-13.27H95.37c-.07-2.87-2.35-4.67-5.18-4.67A5,5,0,0,0,85.05,16.14Z"/><path class="cls-1" d="M115.2,7c5.58,0,9.94,4.36,9.94,11.15s-4.36,11.31-9.94,11.31A8.56,8.56,0,0,1,108,26v3.1h-5.5V0H108V10.48A8.47,8.47,0,0,1,115.2,7Zm-1.45,4.83c-2.94,0-5.73,2.28-5.73,6.4s2.79,6.4,5.73,6.4,5.77-2.36,5.77-6.48S116.73,11.78,113.75,11.78Z"/><path class="cls-1" d="M139.27,7c5.58,0,9.94,4.36,9.94,11.15s-4.36,11.31-9.94,11.31A8.56,8.56,0,0,1,132.09,26v3.1h-5.5V0h5.5V10.48A8.46,8.46,0,0,1,139.27,7Zm-1.45,4.83c-2.94,0-5.73,2.28-5.73,6.4s2.79,6.4,5.73,6.4,5.77-2.36,5.77-6.48S140.8,11.78,137.82,11.78Z"/><rect class="cls-1" x="150.66" y="7.3" width="5.5" height="21.75"/><path class="cls-1" d="M167.54,22.3l-4,6.76h-5.89l7.1-10.92L157.61,7.3h6.2L168.25,14l4-6.72h5.9L171,18.14l7.22,10.92H172Z"/><path class="cls-2" d="M33.4,14l-1.75,2.62a2.89,2.89,0,0,1-4,.8l-5.39-3.59a3.88,3.88,0,0,0-5.39,1.09l-9.6,14.3H0L11.84,11.52A9.93,9.93,0,0,1,25.6,8.76Z"/><path class="cls-2" d="M49.9,7.1,38.16,24.75a9.92,9.92,0,0,1-13.75,2.76l-7.8-5.2,1.74-2.62a2.9,2.9,0,0,1,4-.8l5.38,3.6a3.91,3.91,0,0,0,5.39-1.09L42.66,7.1Z"/></g></g></svg>