<svg xmlns="http://www.w3.org/2000/svg" viewBox="0 0 383.98 169.82"><defs><style>.cls-1{fill:#fff;}</style></defs><title>Asset 17</title><g id="Layer_2" data-name="Layer 2"><g id="Layer_1-2" data-name="Layer 1"><path class="cls-1" d="M257,52.7,243.57,72.83A22.28,22.28,0,0,1,212.69,79l-41.48-27.6a29.83,29.83,0,0,0-41.44,8.36l-73.94,110H0L91.12,34A76.41,76.41,0,0,1,197,12.77Z"/><path class="cls-1" d="M384,0,293.67,135.81a76.41,76.41,0,0,1-105.86,21.24L127.8,117l13.41-20.1a22.28,22.28,0,0,1,30.9-6.18l41.47,27.68A30,30,0,0,0,255,110L328.26,0Z"/></g></g></svg>