<svg xmlns="http://www.w3.org/2000/svg" viewBox="0 0 383.98 383.98"><defs><style>.cls-1{fill:#0066f6;}</style></defs><title>Asset 15</title><g id="Layer_2" data-name="Layer 2"><g id="Layer_1-2" data-name="Layer 1"><path class="cls-1" d="M192,0a192,192,0,0,0,0,384c106,0,192-85.93,192-192S298,0,192,0ZM48.29,255.52l68.19-101.63A57.22,57.22,0,0,1,195.72,138l44.87,29.86-10,15.09a16.67,16.67,0,0,1-23.1,4.59l-31-20.61a22.27,22.27,0,0,0-31,6.22L90.05,255.52ZM268,230.09A57.22,57.22,0,0,1,188.8,246L143.93,216l10-15.09a16.66,16.66,0,0,1,23.1-4.59l31,20.69a22.47,22.47,0,0,0,31-6.22l54.82-82.35h41.68Z"/></g></g></svg>